<?xml version="1.0" encoding="UTF-8" standalone="no"?>
<!DOCTYPE svg PUBLIC "-//W3C//DTD SVG 1.1//EN" "http://www.w3.org/Graphics/SVG/1.1/DTD/svg11.dtd">
<svg width="100%" height="100%" viewBox="0 0 17 17" version="1.1" xmlns="http://www.w3.org/2000/svg" xmlns:xlink="http://www.w3.org/1999/xlink" xml:space="preserve" xmlns:serif="http://www.serif.com/" style="fill-rule:evenodd;clip-rule:evenodd;stroke-linecap:round;stroke-linejoin:round;stroke-miterlimit:1.5;">
    <g transform="matrix(1,0,0,1,-35.2241,-30.9485)">
        <g transform="matrix(1,0,0,1,25.0991,22.5197)">
            <g id="Array_Icon">
                <g transform="matrix(0.120968,0,0,0.120968,7.05723,2.49003)">
                    <path d="M30,54L30,178" style="fill:none;stroke:rgb(252,127,127);stroke-width:9.28px;"/>
                </g>
                <g transform="matrix(0.120968,0,0,0.120968,22.0008,2.49003)">
                    <path d="M30,54L30,178" style="fill:none;stroke:rgb(252,127,127);stroke-width:9.28px;"/>
                </g>
                <g transform="matrix(1.89394e-18,-0.120968,0.0309304,7.40714e-18,9.04828,12.6191)">
                    <path d="M30,54L30,178" style="fill:none;stroke:rgb(252,127,127);stroke-width:12.71px;"/>
                </g>
                <g transform="matrix(1.89394e-18,-0.120968,0.0309304,7.40714e-18,20.1242,12.6513)">
                    <path d="M30,54L30,178" style="fill:none;stroke:rgb(252,127,127);stroke-width:12.71px;"/>
                </g>
                <g transform="matrix(1.89394e-18,-0.120968,0.0309304,7.40714e-18,9.04828,27.8045)">
                    <path d="M30,54L30,178" style="fill:none;stroke:rgb(252,127,127);stroke-width:12.71px;"/>
                </g>
                <g transform="matrix(1.89394e-18,-0.120968,0.0309304,7.40714e-18,20.1242,27.6513)">
                    <path d="M30,54L30,178" style="fill:none;stroke:rgb(252,127,127);stroke-width:12.71px;"/>
                </g>
                <g transform="matrix(0.16106,0,0,0.16106,8.47223,-1.44352)">
                    <path d="M32.481,123.564L46.027,122.247C46.842,126.794 48.496,130.134 50.989,132.266C53.482,134.398 56.845,135.464 61.078,135.464C65.562,135.464 68.94,134.516 71.214,132.619C73.487,130.722 74.624,128.503 74.624,125.963C74.624,124.333 74.146,122.945 73.189,121.801C72.233,120.656 70.563,119.661 68.18,118.814C66.549,118.249 62.834,117.246 57.033,115.804C49.57,113.954 44.333,111.68 41.323,108.984C37.09,105.19 34.973,100.564 34.973,95.108C34.973,91.596 35.969,88.312 37.96,85.255C39.951,82.197 42.82,79.869 46.567,78.27C50.315,76.671 54.838,75.871 60.137,75.871C68.791,75.871 75.306,77.768 79.68,81.562C84.054,85.357 86.351,90.421 86.571,96.755L72.648,97.366C72.052,93.823 70.775,91.275 68.815,89.723C66.855,88.171 63.915,87.395 59.996,87.395C55.951,87.395 52.784,88.226 50.495,89.888C49.021,90.954 48.284,92.38 48.284,94.168C48.284,95.798 48.974,97.194 50.354,98.354C52.11,99.828 56.374,101.364 63.147,102.963C69.92,104.562 74.929,106.216 78.175,107.925C81.42,109.634 83.96,111.97 85.794,114.934C87.629,117.897 88.546,121.558 88.546,125.916C88.546,129.867 87.449,133.567 85.254,137.016C83.059,140.466 79.954,143.029 75.941,144.707C71.927,146.384 66.926,147.223 60.937,147.223C52.219,147.223 45.525,145.208 40.853,141.179C36.181,137.15 33.39,131.278 32.481,123.564Z" style="fill:rgb(252,127,127);fill-rule:nonzero;"/>
                </g>
            </g>
        </g>
    </g>
</svg>
