{"accessors":[{"bufferView":0,"byteOffset":0,"componentType":5126,"count":17823,"max":[0.664297,0.640038,0.018927],"min":[-0.663928,-0.640552,-0.053266],"normalized":false,"type":"VEC3"},{"bufferView":1,"byteOffset":0,"componentType":5126,"count":17823,"max":[0.999999,0.999999,0.999999],"min":[-0.999999,-0.999999,-0.999999],"normalized":false,"type":"VEC3"},{"bufferView":2,"byteOffset":0,"componentType":5126,"count":17823,"max":[0.254902,0.211765,0.227451,1],"min":[0,0,0,1],"normalized":false,"type":"VEC4"},{"bufferView":3,"byteOffset":0,"componentType":5125,"count":17823,"max":[17822],"min":[0],"normalized":false,"type":"SCALAR"}],"asset":{"generator":"Godot Engine v4.0.dev.custom_build@b87b763d70760bac23dfeb02b4af7cbae3f3afce","version":"2.0"},"bufferViews":[{"buffer":0,"byteLength":213876,"byteOffset":0},{"buffer":0,"byteLength":213876,"byteOffset":213876},{"buffer":0,"byteLength":285168,"byteOffset":427752},{"buffer":0,"byteLength":71292,"byteOffset":712920}],"buffers":[{"byteLength":784212,"uri":"aa_01_w10.bin"}],"extensionsRequired":["KHR_texture_transform"],"extensionsUsed":["KHR_lights_punctual","KHR_texture_transform"],"materials":[{"doubleSided":true,"name":"concrete","pbrMetallicRoughness":{"baseColorFactor":[1,1,1,1],"metallicFactor":0,"roughnessFactor":1}}],"meshes":[{"extras":{"targetNames":[]},"primitives":[{"attributes":{"COLOR_0":2,"NORMAL":1,"POSITION":0},"indices":3,"material":0,"mode":4}]}],"nodes":[{"extensions":{},"mesh":0,"name":"aa_01_w1","rotation":[0,0.70710676908493,0,0.70710676908493],"scale":[1.20396995544434,2.66862010955811,1.20396995544434],"translation":[-0.022973,-0.078641,0.0254068002104759]}],"scene":0,"scenes":[{"nodes":[0]}]}