{"accessors":[{"bufferView":0,"byteOffset":0,"componentType":5126,"count":90,"max":[0.04924,0.05,0.04924],"min":[-0.04924,-0.05,-0.04924],"normalized":false,"type":"VEC3"},{"bufferView":1,"byteOffset":0,"componentType":5126,"count":90,"max":[0.998045,-0.000978,0.998045,1],"min":[-1,-0.012708,-1,1],"normalized":false,"type":"VEC4"},{"bufferView":2,"byteOffset":0,"componentType":5126,"count":90,"max":[0.984863,0.999999,0.984901],"min":[-0.984922,-0.999999,-0.982782],"normalized":false,"type":"VEC3"},{"bufferView":3,"byteOffset":0,"componentType":5126,"count":90,"max":[1,1],"min":[0,0],"normalized":false,"type":"VEC2"},{"bufferView":4,"byteOffset":0,"componentType":5125,"count":432,"max":[89],"min":[0],"normalized":false,"type":"SCALAR"}],"asset":{"generator":"Godot Engine v4.0.dev.custom_build@b87b763d70760bac23dfeb02b4af7cbae3f3afce","version":"2.0"},"bufferViews":[{"buffer":0,"byteLength":1080,"byteOffset":0},{"buffer":0,"byteLength":1440,"byteOffset":1080},{"buffer":0,"byteLength":1080,"byteOffset":2520},{"buffer":0,"byteLength":720,"byteOffset":3600},{"buffer":0,"byteLength":1728,"byteOffset":4320}],"buffers":[{"byteLength":6048,"uri":"aniLicht0.bin"}],"extensions":{"KHR_lights_punctual":{"lights":[{"color":[0.731469988822937,0.929502010345459,1],"intensity":3.16349005699158,"range":3.16349005699158,"type":"point"}]}},"extensionsRequired":["KHR_texture_transform"],"extensionsUsed":["KHR_lights_punctual","KHR_texture_transform"],"materials":[{"emissiveFactor":[0,0,0],"name":"material_0","pbrMetallicRoughness":{"baseColorFactor":[0.0159960221499205,0.467784523963928,1,1],"metallicFactor":0,"roughnessFactor":1}}],"meshes":[{"extras":{"targetNames":[]},"primitives":[{"attributes":{"NORMAL":2,"POSITION":0,"TANGENT":1,"TEXCOORD_0":3},"indices":4,"material":0,"mode":4}]}],"nodes":[{"children":[1],"extensions":{},"name":"aniLicht"},{"children":[2],"extensions":{},"mesh":0,"name":"MeshInstance","translation":[-46.237301,4.32010984420776,6.30667018890381]},{"extensions":{"KHR_lights_punctual":{"light":0}},"name":"OmniLight","translation":[0.00398299982771277,-0.011869,0.0176320001482964]}],"scene":0,"scenes":[{"nodes":[0]}]}