{"accessors":[{"bufferView":0,"byteOffset":0,"componentType":5126,"count":30558,"max":[0.640097,0.033792,0.640082],"min":[-0.63999,-0.060778,-0.640034],"normalized":false,"type":"VEC3"},{"bufferView":1,"byteOffset":0,"componentType":5126,"count":30558,"max":[0.999999,0.999999,0.999999],"min":[-0.999999,-0.999999,-0.999999],"normalized":false,"type":"VEC3"},{"bufferView":2,"byteOffset":0,"componentType":5126,"count":30558,"max":[0.254902,0.211765,0.227451,1],"min":[0.031373,0.019608,0.027451,1],"normalized":false,"type":"VEC4"},{"bufferView":3,"byteOffset":0,"componentType":5125,"count":30558,"max":[30557],"min":[0],"normalized":false,"type":"SCALAR"},{"bufferView":4,"byteOffset":0,"componentType":5126,"count":30558,"max":[0.640097,0.033792,0.640082],"min":[-0.63999,-0.060778,-0.640034],"normalized":false,"type":"VEC3"},{"bufferView":5,"byteOffset":0,"componentType":5126,"count":30558,"max":[0.999999,0.999999,0.999999],"min":[-0.999999,-0.999999,-0.999999],"normalized":false,"type":"VEC3"},{"bufferView":6,"byteOffset":0,"componentType":5126,"count":30558,"max":[0.254902,0.211765,0.227451,1],"min":[0.031373,0.019608,0.027451,1],"normalized":false,"type":"VEC4"},{"bufferView":7,"byteOffset":0,"componentType":5125,"count":30558,"max":[30557],"min":[0],"normalized":false,"type":"SCALAR"},{"bufferView":8,"byteOffset":0,"componentType":5126,"count":30558,"max":[0.640097,0.033792,0.640082],"min":[-0.63999,-0.060778,-0.640034],"normalized":false,"type":"VEC3"},{"bufferView":9,"byteOffset":0,"componentType":5126,"count":30558,"max":[0.999999,0.999999,0.999999],"min":[-0.999999,-0.999999,-0.999999],"normalized":false,"type":"VEC3"},{"bufferView":10,"byteOffset":0,"componentType":5126,"count":30558,"max":[0.254902,0.211765,0.227451,1],"min":[0.031373,0.019608,0.027451,1],"normalized":false,"type":"VEC4"},{"bufferView":11,"byteOffset":0,"componentType":5125,"count":30558,"max":[30557],"min":[0],"normalized":false,"type":"SCALAR"},{"bufferView":12,"byteOffset":0,"componentType":5126,"count":30558,"max":[0.640097,0.033792,0.640082],"min":[-0.63999,-0.060778,-0.640034],"normalized":false,"type":"VEC3"},{"bufferView":13,"byteOffset":0,"componentType":5126,"count":30558,"max":[0.999999,0.999999,0.999999],"min":[-0.999999,-0.999999,-0.999999],"normalized":false,"type":"VEC3"},{"bufferView":14,"byteOffset":0,"componentType":5126,"count":30558,"max":[0.254902,0.211765,0.227451,1],"min":[0.031373,0.019608,0.027451,1],"normalized":false,"type":"VEC4"},{"bufferView":15,"byteOffset":0,"componentType":5125,"count":30558,"max":[30557],"min":[0],"normalized":false,"type":"SCALAR"},{"bufferView":16,"byteOffset":0,"componentType":5126,"count":30558,"max":[0.640097,0.033792,0.640082],"min":[-0.63999,-0.060778,-0.640034],"normalized":false,"type":"VEC3"},{"bufferView":17,"byteOffset":0,"componentType":5126,"count":30558,"max":[0.999999,0.999999,0.999999],"min":[-0.999999,-0.999999,-0.999999],"normalized":false,"type":"VEC3"},{"bufferView":18,"byteOffset":0,"componentType":5126,"count":30558,"max":[0.254902,0.211765,0.227451,1],"min":[0.031373,0.019608,0.027451,1],"normalized":false,"type":"VEC4"},{"bufferView":19,"byteOffset":0,"componentType":5125,"count":30558,"max":[30557],"min":[0],"normalized":false,"type":"SCALAR"},{"bufferView":20,"byteOffset":0,"componentType":5126,"count":30558,"max":[0.640097,0.033792,0.640082],"min":[-0.63999,-0.060778,-0.640034],"normalized":false,"type":"VEC3"},{"bufferView":21,"byteOffset":0,"componentType":5126,"count":30558,"max":[0.999999,0.999999,0.999999],"min":[-0.999999,-0.999999,-0.999999],"normalized":false,"type":"VEC3"},{"bufferView":22,"byteOffset":0,"componentType":5126,"count":30558,"max":[0.254902,0.211765,0.227451,1],"min":[0.031373,0.019608,0.027451,1],"normalized":false,"type":"VEC4"},{"bufferView":23,"byteOffset":0,"componentType":5125,"count":30558,"max":[30557],"min":[0],"normalized":false,"type":"SCALAR"},{"bufferView":24,"byteOffset":0,"componentType":5126,"count":30558,"max":[0.640097,0.033792,0.640082],"min":[-0.63999,-0.060778,-0.640034],"normalized":false,"type":"VEC3"},{"bufferView":25,"byteOffset":0,"componentType":5126,"count":30558,"max":[0.999999,0.999999,0.999999],"min":[-0.999999,-0.999999,-0.999999],"normalized":false,"type":"VEC3"},{"bufferView":26,"byteOffset":0,"componentType":5126,"count":30558,"max":[0.254902,0.211765,0.227451,1],"min":[0.031373,0.019608,0.027451,1],"normalized":false,"type":"VEC4"},{"bufferView":27,"byteOffset":0,"componentType":5125,"count":30558,"max":[30557],"min":[0],"normalized":false,"type":"SCALAR"},{"bufferView":28,"byteOffset":0,"componentType":5126,"count":30558,"max":[0.640097,0.033792,0.640082],"min":[-0.63999,-0.060778,-0.640034],"normalized":false,"type":"VEC3"},{"bufferView":29,"byteOffset":0,"componentType":5126,"count":30558,"max":[0.999999,0.999999,0.999999],"min":[-0.999999,-0.999999,-0.999999],"normalized":false,"type":"VEC3"},{"bufferView":30,"byteOffset":0,"componentType":5126,"count":30558,"max":[0.254902,0.211765,0.227451,1],"min":[0.031373,0.019608,0.027451,1],"normalized":false,"type":"VEC4"},{"bufferView":31,"byteOffset":0,"componentType":5125,"count":30558,"max":[30557],"min":[0],"normalized":false,"type":"SCALAR"},{"bufferView":32,"byteOffset":0,"componentType":5126,"count":30558,"max":[0.640097,0.033792,0.640082],"min":[-0.63999,-0.060778,-0.640034],"normalized":false,"type":"VEC3"},{"bufferView":33,"byteOffset":0,"componentType":5126,"count":30558,"max":[0.999999,0.999999,0.999999],"min":[-0.999999,-0.999999,-0.999999],"normalized":false,"type":"VEC3"},{"bufferView":34,"byteOffset":0,"componentType":5126,"count":30558,"max":[0.254902,0.211765,0.227451,1],"min":[0.031373,0.019608,0.027451,1],"normalized":false,"type":"VEC4"},{"bufferView":35,"byteOffset":0,"componentType":5125,"count":30558,"max":[30557],"min":[0],"normalized":false,"type":"SCALAR"}],"asset":{"generator":"Godot Engine v4.0.dev.custom_build@b87b763d70760bac23dfeb02b4af7cbae3f3afce","version":"2.0"},"bufferViews":[{"buffer":0,"byteLength":366696,"byteOffset":0},{"buffer":0,"byteLength":366696,"byteOffset":366696},{"buffer":0,"byteLength":488928,"byteOffset":733392},{"buffer":0,"byteLength":122232,"byteOffset":1222320},{"buffer":0,"byteLength":366696,"byteOffset":1344552},{"buffer":0,"byteLength":366696,"byteOffset":1711248},{"buffer":0,"byteLength":488928,"byteOffset":2077944},{"buffer":0,"byteLength":122232,"byteOffset":2566872},{"buffer":0,"byteLength":366696,"byteOffset":2689104},{"buffer":0,"byteLength":366696,"byteOffset":3055800},{"buffer":0,"byteLength":488928,"byteOffset":3422496},{"buffer":0,"byteLength":122232,"byteOffset":3911424},{"buffer":0,"byteLength":366696,"byteOffset":4033656},{"buffer":0,"byteLength":366696,"byteOffset":4400352},{"buffer":0,"byteLength":488928,"byteOffset":4767048},{"buffer":0,"byteLength":122232,"byteOffset":5255976},{"buffer":0,"byteLength":366696,"byteOffset":5378208},{"buffer":0,"byteLength":366696,"byteOffset":5744904},{"buffer":0,"byteLength":488928,"byteOffset":6111600},{"buffer":0,"byteLength":122232,"byteOffset":6600528},{"buffer":0,"byteLength":366696,"byteOffset":6722760},{"buffer":0,"byteLength":366696,"byteOffset":7089456},{"buffer":0,"byteLength":488928,"byteOffset":7456152},{"buffer":0,"byteLength":122232,"byteOffset":7945080},{"buffer":0,"byteLength":366696,"byteOffset":8067312},{"buffer":0,"byteLength":366696,"byteOffset":8434008},{"buffer":0,"byteLength":488928,"byteOffset":8800704},{"buffer":0,"byteLength":122232,"byteOffset":9289632},{"buffer":0,"byteLength":366696,"byteOffset":9411864},{"buffer":0,"byteLength":366696,"byteOffset":9778560},{"buffer":0,"byteLength":488928,"byteOffset":10145256},{"buffer":0,"byteLength":122232,"byteOffset":10634184},{"buffer":0,"byteLength":366696,"byteOffset":10756416},{"buffer":0,"byteLength":366696,"byteOffset":11123112},{"buffer":0,"byteLength":488928,"byteOffset":11489808},{"buffer":0,"byteLength":122232,"byteOffset":11978736}],"buffers":[{"byteLength":12100968,"uri":"Boden20.bin"}],"extensionsRequired":["KHR_texture_transform"],"extensionsUsed":["KHR_lights_punctual","KHR_texture_transform"],"materials":[{"doubleSided":true,"name":"concrete6","pbrMetallicRoughness":{"baseColorFactor":[0.533276796340942,0.22322803735733,0.0886562690138817,1],"metallicFactor":0,"roughnessFactor":1}}],"meshes":[{"extras":{"targetNames":[]},"primitives":[{"attributes":{"COLOR_0":2,"NORMAL":1,"POSITION":0},"indices":3,"material":0,"mode":4}]},{"extras":{"targetNames":[]},"primitives":[{"attributes":{"COLOR_0":6,"NORMAL":5,"POSITION":4},"indices":7,"material":0,"mode":4}]},{"extras":{"targetNames":[]},"primitives":[{"attributes":{"COLOR_0":10,"NORMAL":9,"POSITION":8},"indices":11,"material":0,"mode":4}]},{"extras":{"targetNames":[]},"primitives":[{"attributes":{"COLOR_0":14,"NORMAL":13,"POSITION":12},"indices":15,"material":0,"mode":4}]},{"extras":{"targetNames":[]},"primitives":[{"attributes":{"COLOR_0":18,"NORMAL":17,"POSITION":16},"indices":19,"material":0,"mode":4}]},{"extras":{"targetNames":[]},"primitives":[{"attributes":{"COLOR_0":22,"NORMAL":21,"POSITION":20},"indices":23,"material":0,"mode":4}]},{"extras":{"targetNames":[]},"primitives":[{"attributes":{"COLOR_0":26,"NORMAL":25,"POSITION":24},"indices":27,"material":0,"mode":4}]},{"extras":{"targetNames":[]},"primitives":[{"attributes":{"COLOR_0":30,"NORMAL":29,"POSITION":28},"indices":31,"material":0,"mode":4}]},{"extras":{"targetNames":[]},"primitives":[{"attributes":{"COLOR_0":34,"NORMAL":33,"POSITION":32},"indices":35,"material":0,"mode":4}]}],"nodes":[{"children":[1,2,3,4,5,6,7,8,9],"extensions":{},"name":"Boden"},{"extensions":{},"mesh":0,"name":"aa_01_b1","scale":[2.56703996658325,2.56703996658325,2.56703996658325],"translation":[-9.62068,1.32943999767303,-24.343]},{"extensions":{},"mesh":1,"name":"aa_01_b22","scale":[2.56703996658325,2.56703996658325,2.56703996658325],"translation":[-9.62068,1.32943999767303,-21.0343]},{"extensions":{},"mesh":2,"name":"aa_01_b62","rotation":[-0.016224,-0.711593,-0.019098,0.7021444439888],"scale":[2.8585786819458,2.56704378128052,2.56704211235046],"translation":[26.9703006744385,0.00138000003062189,-60.889801]},{"extensions":{},"mesh":3,"name":"aa_01_b72","rotation":[0.00104000070132315,0.706182241439819,0.0012640010099858,0.708028256893158],"scale":[2.85857486724854,2.56704378128052,2.56703877449036],"translation":[30.2299995422363,-0.085096,-60.769501]},{"extensions":{},"mesh":4,"name":"aa_01_b82","rotation":[-0.002849,0.0126749966293573,0.0213659778237343,0.999687314033508],"scale":[2.85857844352722,2.56703543663025,2.56703639030457],"translation":[36.2692985534668,0.109521999955177,-61.071499]},{"extensions":{},"mesh":5,"name":"aa_01_b9","rotation":[-0.017893,0.757320165634155,0.0120189422741532,0.652688026428223],"scale":[2.85857367515564,2.56703543663025,2.56704020500183],"translation":[41.8251991271973,0.296862989664078,-61.463902]},{"extensions":{},"mesh":6,"name":"aa_01_b42","rotation":[0.0122789451852441,0.262912660837173,0.0450079999864101,0.963691055774689],"scale":[2.12551593780518,2.56704449653625,2.11870217323303],"translation":[-17.9144,1.27853000164032,-15.9501]},{"extensions":{},"mesh":7,"name":"aa_01_b52","rotation":[0.0360350236296654,0.158623963594437,-0.01878,0.986502528190613],"scale":[2.95342922210693,2.5670473575592,2.11870217323303],"translation":[-23.7131,1.18985998630524,-13.5515]},{"extensions":{},"mesh":8,"name":"aa_01_b32","scale":[2.56703996658325,2.56703996658325,2.56703996658325],"translation":[-6.34982,1.32943999767303,-21.0343]}],"scene":0,"scenes":[{"nodes":[0]}]}