{"accessors":[{"bufferView":0,"byteOffset":0,"componentType":5126,"count":30558,"max":[0.640097,0.033792,0.640082],"min":[-0.63999,-0.060778,-0.640034],"normalized":false,"type":"VEC3"},{"bufferView":1,"byteOffset":0,"componentType":5126,"count":30558,"max":[0.999999,0.999999,0.999999],"min":[-0.999999,-0.999999,-0.999999],"normalized":false,"type":"VEC3"},{"bufferView":2,"byteOffset":0,"componentType":5126,"count":30558,"max":[0.254902,0.211765,0.227451,1],"min":[0.031373,0.019608,0.027451,1],"normalized":false,"type":"VEC4"},{"bufferView":3,"byteOffset":0,"componentType":5125,"count":30558,"max":[30557],"min":[0],"normalized":false,"type":"SCALAR"},{"bufferView":4,"byteOffset":0,"componentType":5126,"count":30558,"max":[0.640097,0.033792,0.640082],"min":[-0.63999,-0.060778,-0.640034],"normalized":false,"type":"VEC3"},{"bufferView":5,"byteOffset":0,"componentType":5126,"count":30558,"max":[0.999999,0.999999,0.999999],"min":[-0.999999,-0.999999,-0.999999],"normalized":false,"type":"VEC3"},{"bufferView":6,"byteOffset":0,"componentType":5126,"count":30558,"max":[0.254902,0.211765,0.227451,1],"min":[0.031373,0.019608,0.027451,1],"normalized":false,"type":"VEC4"},{"bufferView":7,"byteOffset":0,"componentType":5125,"count":30558,"max":[30557],"min":[0],"normalized":false,"type":"SCALAR"},{"bufferView":8,"byteOffset":0,"componentType":5126,"count":30558,"max":[0.640097,0.033792,0.640082],"min":[-0.63999,-0.060778,-0.640034],"normalized":false,"type":"VEC3"},{"bufferView":9,"byteOffset":0,"componentType":5126,"count":30558,"max":[0.999999,0.999999,0.999999],"min":[-0.999999,-0.999999,-0.999999],"normalized":false,"type":"VEC3"},{"bufferView":10,"byteOffset":0,"componentType":5126,"count":30558,"max":[0.254902,0.211765,0.227451,1],"min":[0.031373,0.019608,0.027451,1],"normalized":false,"type":"VEC4"},{"bufferView":11,"byteOffset":0,"componentType":5125,"count":30558,"max":[30557],"min":[0],"normalized":false,"type":"SCALAR"},{"bufferView":12,"byteOffset":0,"componentType":5126,"count":30558,"max":[0.640097,0.033792,0.640082],"min":[-0.63999,-0.060778,-0.640034],"normalized":false,"type":"VEC3"},{"bufferView":13,"byteOffset":0,"componentType":5126,"count":30558,"max":[0.999999,0.999999,0.999999],"min":[-0.999999,-0.999999,-0.999999],"normalized":false,"type":"VEC3"},{"bufferView":14,"byteOffset":0,"componentType":5126,"count":30558,"max":[0.254902,0.211765,0.227451,1],"min":[0.031373,0.019608,0.027451,1],"normalized":false,"type":"VEC4"},{"bufferView":15,"byteOffset":0,"componentType":5125,"count":30558,"max":[30557],"min":[0],"normalized":false,"type":"SCALAR"},{"bufferView":16,"byteOffset":0,"componentType":5126,"count":30558,"max":[0.640097,0.033792,0.640082],"min":[-0.63999,-0.060778,-0.640034],"normalized":false,"type":"VEC3"},{"bufferView":17,"byteOffset":0,"componentType":5126,"count":30558,"max":[0.999999,0.999999,0.999999],"min":[-0.999999,-0.999999,-0.999999],"normalized":false,"type":"VEC3"},{"bufferView":18,"byteOffset":0,"componentType":5126,"count":30558,"max":[0.254902,0.211765,0.227451,1],"min":[0.031373,0.019608,0.027451,1],"normalized":false,"type":"VEC4"},{"bufferView":19,"byteOffset":0,"componentType":5125,"count":30558,"max":[30557],"min":[0],"normalized":false,"type":"SCALAR"},{"bufferView":20,"byteOffset":0,"componentType":5126,"count":30558,"max":[0.640097,0.033792,0.640082],"min":[-0.63999,-0.060778,-0.640034],"normalized":false,"type":"VEC3"},{"bufferView":21,"byteOffset":0,"componentType":5126,"count":30558,"max":[0.999999,0.999999,0.999999],"min":[-0.999999,-0.999999,-0.999999],"normalized":false,"type":"VEC3"},{"bufferView":22,"byteOffset":0,"componentType":5126,"count":30558,"max":[0.254902,0.211765,0.227451,1],"min":[0.031373,0.019608,0.027451,1],"normalized":false,"type":"VEC4"},{"bufferView":23,"byteOffset":0,"componentType":5125,"count":30558,"max":[30557],"min":[0],"normalized":false,"type":"SCALAR"},{"bufferView":24,"byteOffset":0,"componentType":5126,"count":30558,"max":[0.640097,0.033792,0.640082],"min":[-0.63999,-0.060778,-0.640034],"normalized":false,"type":"VEC3"},{"bufferView":25,"byteOffset":0,"componentType":5126,"count":30558,"max":[0.999999,0.999999,0.999999],"min":[-0.999999,-0.999999,-0.999999],"normalized":false,"type":"VEC3"},{"bufferView":26,"byteOffset":0,"componentType":5126,"count":30558,"max":[0.254902,0.211765,0.227451,1],"min":[0.031373,0.019608,0.027451,1],"normalized":false,"type":"VEC4"},{"bufferView":27,"byteOffset":0,"componentType":5125,"count":30558,"max":[30557],"min":[0],"normalized":false,"type":"SCALAR"}],"asset":{"generator":"Godot Engine v4.0.dev.custom_build@b87b763d70760bac23dfeb02b4af7cbae3f3afce","version":"2.0"},"bufferViews":[{"buffer":0,"byteLength":366696,"byteOffset":0},{"buffer":0,"byteLength":366696,"byteOffset":366696},{"buffer":0,"byteLength":488928,"byteOffset":733392},{"buffer":0,"byteLength":122232,"byteOffset":1222320},{"buffer":0,"byteLength":366696,"byteOffset":1344552},{"buffer":0,"byteLength":366696,"byteOffset":1711248},{"buffer":0,"byteLength":488928,"byteOffset":2077944},{"buffer":0,"byteLength":122232,"byteOffset":2566872},{"buffer":0,"byteLength":366696,"byteOffset":2689104},{"buffer":0,"byteLength":366696,"byteOffset":3055800},{"buffer":0,"byteLength":488928,"byteOffset":3422496},{"buffer":0,"byteLength":122232,"byteOffset":3911424},{"buffer":0,"byteLength":366696,"byteOffset":4033656},{"buffer":0,"byteLength":366696,"byteOffset":4400352},{"buffer":0,"byteLength":488928,"byteOffset":4767048},{"buffer":0,"byteLength":122232,"byteOffset":5255976},{"buffer":0,"byteLength":366696,"byteOffset":5378208},{"buffer":0,"byteLength":366696,"byteOffset":5744904},{"buffer":0,"byteLength":488928,"byteOffset":6111600},{"buffer":0,"byteLength":122232,"byteOffset":6600528},{"buffer":0,"byteLength":366696,"byteOffset":6722760},{"buffer":0,"byteLength":366696,"byteOffset":7089456},{"buffer":0,"byteLength":488928,"byteOffset":7456152},{"buffer":0,"byteLength":122232,"byteOffset":7945080},{"buffer":0,"byteLength":366696,"byteOffset":8067312},{"buffer":0,"byteLength":366696,"byteOffset":8434008},{"buffer":0,"byteLength":488928,"byteOffset":8800704},{"buffer":0,"byteLength":122232,"byteOffset":9289632}],"buffers":[{"byteLength":9411864,"uri":"Boden0.bin"}],"extensionsRequired":["KHR_texture_transform"],"extensionsUsed":["KHR_lights_punctual","KHR_texture_transform"],"materials":[{"doubleSided":true,"name":"concrete","pbrMetallicRoughness":{"baseColorFactor":[1,1,1,1],"metallicFactor":0,"roughnessFactor":1}}],"meshes":[{"extras":{"targetNames":[]},"primitives":[{"attributes":{"COLOR_0":2,"NORMAL":1,"POSITION":0},"indices":3,"material":0,"mode":4}]},{"extras":{"targetNames":[]},"primitives":[{"attributes":{"COLOR_0":6,"NORMAL":5,"POSITION":4},"indices":7,"material":0,"mode":4}]},{"extras":{"targetNames":[]},"primitives":[{"attributes":{"COLOR_0":10,"NORMAL":9,"POSITION":8},"indices":11,"material":0,"mode":4}]},{"extras":{"targetNames":[]},"primitives":[{"attributes":{"COLOR_0":14,"NORMAL":13,"POSITION":12},"indices":15,"material":0,"mode":4}]},{"extras":{"targetNames":[]},"primitives":[{"attributes":{"COLOR_0":18,"NORMAL":17,"POSITION":16},"indices":19,"material":0,"mode":4}]},{"extras":{"targetNames":[]},"primitives":[{"attributes":{"COLOR_0":22,"NORMAL":21,"POSITION":20},"indices":23,"material":0,"mode":4}]},{"extras":{"targetNames":[]},"primitives":[{"attributes":{"COLOR_0":26,"NORMAL":25,"POSITION":24},"indices":27,"material":0,"mode":4}]}],"nodes":[{"children":[1,2,3,4,5,6,7],"extensions":{},"name":"Boden"},{"extensions":{},"mesh":0,"name":"aa_01_b2","scale":[1.48760998249054,1.48760998249054,1.48760998249054],"translation":[-3.05272,4.3575701713562,-11.2841]},{"extensions":{},"mesh":1,"name":"aa_01_b3","scale":[1.48760998249054,1.48760998249054,1.48760998249054],"translation":[-1.14928,4.3575701713562,-11.2438]},{"extensions":{},"mesh":2,"name":"aa_01_b4","rotation":[0,-0.707107,0,0.70710676908493],"scale":[1.48760998249054,1.48760998249054,1.48760998249054],"translation":[0.752664983272552,4.3575701713562,-11.1985]},{"extensions":{},"mesh":3,"name":"aa_01_b5","rotation":[0,0.70710676908493,0,0.70710676908493],"scale":[1.48760998249054,1.48760998249054,1.48760998249054],"translation":[2.65460991859436,4.3575701713562,-11.1683]},{"extensions":{},"mesh":4,"name":"aa_01_b6","rotation":[0,1,0,0],"scale":[1.48760998249054,1.48760998249054,1.48760998249054],"translation":[4.55656003952026,4.3575701713562,-11.113]},{"extensions":{},"mesh":5,"name":"aa_01_b7","rotation":[0,-0.707107,0,0.70710676908493],"scale":[1.48760998249054,1.48760998249054,1.48760998249054],"translation":[6.4534797668457,4.3575701713562,-11.0727]},{"extensions":{},"mesh":6,"name":"aa_01_b8","scale":[1.48760998249054,1.48760998249054,1.48760998249054],"translation":[8.35039043426514,4.3575701713562,-11.0677]}],"scene":0,"scenes":[{"nodes":[0]}]}