{"accessors":[{"bufferView":0,"byteOffset":0,"componentType":5126,"count":28926,"max":[0.642635,0.15949,0.64224],"min":[-0.639956,-0.001976,-0.641386],"normalized":false,"type":"VEC3"},{"bufferView":1,"byteOffset":0,"componentType":5126,"count":28926,"max":[0.999999,0.999999,0.999976],"min":[-0.999999,-0.999999,-0.999999],"normalized":false,"type":"VEC3"},{"bufferView":2,"byteOffset":0,"componentType":5126,"count":28926,"max":[0.254902,0.211765,0.227451,1],"min":[0.011765,0.011765,0.011765,1],"normalized":false,"type":"VEC4"},{"bufferView":3,"byteOffset":0,"componentType":5125,"count":28926,"max":[28925],"min":[0],"normalized":false,"type":"SCALAR"},{"bufferView":4,"byteOffset":0,"componentType":5126,"count":28926,"max":[0.642635,0.15949,0.64224],"min":[-0.639956,-0.001976,-0.641386],"normalized":false,"type":"VEC3"},{"bufferView":5,"byteOffset":0,"componentType":5126,"count":28926,"max":[0.999999,0.999999,0.999976],"min":[-0.999999,-0.999999,-0.999999],"normalized":false,"type":"VEC3"},{"bufferView":6,"byteOffset":0,"componentType":5126,"count":28926,"max":[0.254902,0.211765,0.227451,1],"min":[0.011765,0.011765,0.011765,1],"normalized":false,"type":"VEC4"},{"bufferView":7,"byteOffset":0,"componentType":5125,"count":28926,"max":[28925],"min":[0],"normalized":false,"type":"SCALAR"},{"bufferView":8,"byteOffset":0,"componentType":5126,"count":28926,"max":[0.642635,0.15949,0.64224],"min":[-0.639956,-0.001976,-0.641386],"normalized":false,"type":"VEC3"},{"bufferView":9,"byteOffset":0,"componentType":5126,"count":28926,"max":[0.999999,0.999999,0.999976],"min":[-0.999999,-0.999999,-0.999999],"normalized":false,"type":"VEC3"},{"bufferView":10,"byteOffset":0,"componentType":5126,"count":28926,"max":[0.254902,0.211765,0.227451,1],"min":[0.011765,0.011765,0.011765,1],"normalized":false,"type":"VEC4"},{"bufferView":11,"byteOffset":0,"componentType":5125,"count":28926,"max":[28925],"min":[0],"normalized":false,"type":"SCALAR"},{"bufferView":12,"byteOffset":0,"componentType":5126,"count":28926,"max":[0.642635,0.15949,0.64224],"min":[-0.639956,-0.001976,-0.641386],"normalized":false,"type":"VEC3"},{"bufferView":13,"byteOffset":0,"componentType":5126,"count":28926,"max":[0.999999,0.999999,0.999976],"min":[-0.999999,-0.999999,-0.999999],"normalized":false,"type":"VEC3"},{"bufferView":14,"byteOffset":0,"componentType":5126,"count":28926,"max":[0.254902,0.211765,0.227451,1],"min":[0.011765,0.011765,0.011765,1],"normalized":false,"type":"VEC4"},{"bufferView":15,"byteOffset":0,"componentType":5125,"count":28926,"max":[28925],"min":[0],"normalized":false,"type":"SCALAR"},{"bufferView":16,"byteOffset":0,"componentType":5126,"count":28926,"max":[0.642635,0.15949,0.64224],"min":[-0.639956,-0.001976,-0.641386],"normalized":false,"type":"VEC3"},{"bufferView":17,"byteOffset":0,"componentType":5126,"count":28926,"max":[0.999999,0.999999,0.999976],"min":[-0.999999,-0.999999,-0.999999],"normalized":false,"type":"VEC3"},{"bufferView":18,"byteOffset":0,"componentType":5126,"count":28926,"max":[0.254902,0.211765,0.227451,1],"min":[0.011765,0.011765,0.011765,1],"normalized":false,"type":"VEC4"},{"bufferView":19,"byteOffset":0,"componentType":5125,"count":28926,"max":[28925],"min":[0],"normalized":false,"type":"SCALAR"},{"bufferView":20,"byteOffset":0,"componentType":5126,"count":28926,"max":[0.642635,0.15949,0.64224],"min":[-0.639956,-0.001976,-0.641386],"normalized":false,"type":"VEC3"},{"bufferView":21,"byteOffset":0,"componentType":5126,"count":28926,"max":[0.999999,0.999999,0.999976],"min":[-0.999999,-0.999999,-0.999999],"normalized":false,"type":"VEC3"},{"bufferView":22,"byteOffset":0,"componentType":5126,"count":28926,"max":[0.254902,0.211765,0.227451,1],"min":[0.011765,0.011765,0.011765,1],"normalized":false,"type":"VEC4"},{"bufferView":23,"byteOffset":0,"componentType":5125,"count":28926,"max":[28925],"min":[0],"normalized":false,"type":"SCALAR"},{"bufferView":24,"byteOffset":0,"componentType":5126,"count":28926,"max":[0.642635,0.15949,0.64224],"min":[-0.639956,-0.001976,-0.641386],"normalized":false,"type":"VEC3"},{"bufferView":25,"byteOffset":0,"componentType":5126,"count":28926,"max":[0.999999,0.999999,0.999976],"min":[-0.999999,-0.999999,-0.999999],"normalized":false,"type":"VEC3"},{"bufferView":26,"byteOffset":0,"componentType":5126,"count":28926,"max":[0.254902,0.211765,0.227451,1],"min":[0.011765,0.011765,0.011765,1],"normalized":false,"type":"VEC4"},{"bufferView":27,"byteOffset":0,"componentType":5125,"count":28926,"max":[28925],"min":[0],"normalized":false,"type":"SCALAR"},{"bufferView":28,"byteOffset":0,"componentType":5126,"count":28926,"max":[0.642635,0.15949,0.64224],"min":[-0.639956,-0.001976,-0.641386],"normalized":false,"type":"VEC3"},{"bufferView":29,"byteOffset":0,"componentType":5126,"count":28926,"max":[0.999999,0.999999,0.999976],"min":[-0.999999,-0.999999,-0.999999],"normalized":false,"type":"VEC3"},{"bufferView":30,"byteOffset":0,"componentType":5126,"count":28926,"max":[0.254902,0.211765,0.227451,1],"min":[0.011765,0.011765,0.011765,1],"normalized":false,"type":"VEC4"},{"bufferView":31,"byteOffset":0,"componentType":5125,"count":28926,"max":[28925],"min":[0],"normalized":false,"type":"SCALAR"}],"asset":{"generator":"Godot Engine v4.0.dev.custom_build@b87b763d70760bac23dfeb02b4af7cbae3f3afce","version":"2.0"},"bufferViews":[{"buffer":0,"byteLength":347112,"byteOffset":0},{"buffer":0,"byteLength":347112,"byteOffset":347112},{"buffer":0,"byteLength":462816,"byteOffset":694224},{"buffer":0,"byteLength":115704,"byteOffset":1157040},{"buffer":0,"byteLength":347112,"byteOffset":1272744},{"buffer":0,"byteLength":347112,"byteOffset":1619856},{"buffer":0,"byteLength":462816,"byteOffset":1966968},{"buffer":0,"byteLength":115704,"byteOffset":2429784},{"buffer":0,"byteLength":347112,"byteOffset":2545488},{"buffer":0,"byteLength":347112,"byteOffset":2892600},{"buffer":0,"byteLength":462816,"byteOffset":3239712},{"buffer":0,"byteLength":115704,"byteOffset":3702528},{"buffer":0,"byteLength":347112,"byteOffset":3818232},{"buffer":0,"byteLength":347112,"byteOffset":4165344},{"buffer":0,"byteLength":462816,"byteOffset":4512456},{"buffer":0,"byteLength":115704,"byteOffset":4975272},{"buffer":0,"byteLength":347112,"byteOffset":5090976},{"buffer":0,"byteLength":347112,"byteOffset":5438088},{"buffer":0,"byteLength":462816,"byteOffset":5785200},{"buffer":0,"byteLength":115704,"byteOffset":6248016},{"buffer":0,"byteLength":347112,"byteOffset":6363720},{"buffer":0,"byteLength":347112,"byteOffset":6710832},{"buffer":0,"byteLength":462816,"byteOffset":7057944},{"buffer":0,"byteLength":115704,"byteOffset":7520760},{"buffer":0,"byteLength":347112,"byteOffset":7636464},{"buffer":0,"byteLength":347112,"byteOffset":7983576},{"buffer":0,"byteLength":462816,"byteOffset":8330688},{"buffer":0,"byteLength":115704,"byteOffset":8793504},{"buffer":0,"byteLength":347112,"byteOffset":8909208},{"buffer":0,"byteLength":347112,"byteOffset":9256320},{"buffer":0,"byteLength":462816,"byteOffset":9603432},{"buffer":0,"byteLength":115704,"byteOffset":10066248}],"buffers":[{"byteLength":10181952,"uri":"Decke0.bin"}],"extensionsRequired":["KHR_texture_transform"],"extensionsUsed":["KHR_lights_punctual","KHR_texture_transform"],"materials":[{"doubleSided":true,"name":"concrete4","pbrMetallicRoughness":{"baseColorFactor":[1,1,1,1],"metallicFactor":0,"roughnessFactor":1}}],"meshes":[{"extras":{"targetNames":[]},"primitives":[{"attributes":{"COLOR_0":2,"NORMAL":1,"POSITION":0},"indices":3,"material":0,"mode":4}]},{"extras":{"targetNames":[]},"primitives":[{"attributes":{"COLOR_0":6,"NORMAL":5,"POSITION":4},"indices":7,"material":0,"mode":4}]},{"extras":{"targetNames":[]},"primitives":[{"attributes":{"COLOR_0":10,"NORMAL":9,"POSITION":8},"indices":11,"material":0,"mode":4}]},{"extras":{"targetNames":[]},"primitives":[{"attributes":{"COLOR_0":14,"NORMAL":13,"POSITION":12},"indices":15,"material":0,"mode":4}]},{"extras":{"targetNames":[]},"primitives":[{"attributes":{"COLOR_0":18,"NORMAL":17,"POSITION":16},"indices":19,"material":0,"mode":4}]},{"extras":{"targetNames":[]},"primitives":[{"attributes":{"COLOR_0":22,"NORMAL":21,"POSITION":20},"indices":23,"material":0,"mode":4}]},{"extras":{"targetNames":[]},"primitives":[{"attributes":{"COLOR_0":26,"NORMAL":25,"POSITION":24},"indices":27,"material":0,"mode":4}]},{"extras":{"targetNames":[]},"primitives":[{"attributes":{"COLOR_0":30,"NORMAL":29,"POSITION":28},"indices":31,"material":0,"mode":4}]}],"nodes":[{"children":[1,2,3,4,5,6,7,8],"extensions":{},"name":"Decke"},{"extensions":{},"mesh":0,"name":"aa_01_d1","scale":[1.32152998447418,1.32152998447418,1.46123003959656],"translation":[-3.17375,7.27116012573242,-11.3104]},{"extensions":{},"mesh":1,"name":"aa_01_d2","scale":[1.32152998447418,1.32152998447418,1.46123003959656],"translation":[-1.48979,7.27116012573242,-11.265]},{"extensions":{},"mesh":2,"name":"aa_01_d3","scale":[1.32152998447418,1.32152998447418,1.46123003959656],"translation":[0.187325000762939,7.27116012573242,-11.2195]},{"extensions":{},"mesh":3,"name":"aa_01_d4","scale":[1.32152998447418,1.32152998447418,1.46123003959656],"translation":[1.8712899684906,7.27116012573242,-11.1742]},{"extensions":{},"mesh":4,"name":"aa_01_d5","scale":[1.32152998447418,1.32152998447418,1.46123003959656],"translation":[3.54839992523193,7.27116012573242,-11.1061]},{"extensions":{},"mesh":5,"name":"aa_01_d6","scale":[1.32152998447418,1.32152998447418,1.46123003959656],"translation":[5.21866989135742,7.27116012573242,-11.0682]},{"extensions":{},"mesh":6,"name":"aa_01_d7","scale":[1.32152998447418,1.32152998447418,1.46123003959656],"translation":[6.90262985229492,7.27116012573242,-11.0607]},{"extensions":{},"mesh":7,"name":"aa_01_d8","scale":[1.32152998447418,1.32152998447418,1.46123003959656],"translation":[8.59344005584717,7.27116012573242,-11.0607]}],"scene":0,"scenes":[{"nodes":[0]}]}