{"accessors":[{"bufferView":0,"byteOffset":0,"componentType":5126,"count":671094,"max":[25.46591,18.390938,25.465908],"min":[-26.170471,-19.311522,-30.687773],"normalized":false,"type":"VEC3"},{"bufferView":1,"byteOffset":0,"componentType":5126,"count":671094,"max":[0.999999,0.999999,0.999999],"min":[-0.999999,-0.999999,-0.999999],"normalized":false,"type":"VEC3"},{"bufferView":2,"byteOffset":0,"componentType":5126,"count":671094,"max":[0.294118,0.109804,0.011765,1],"min":[0.019608,0.011765,0,1],"normalized":false,"type":"VEC4"},{"bufferView":3,"byteOffset":0,"componentType":5125,"count":671094,"max":[671093],"min":[0],"normalized":false,"type":"SCALAR"}],"asset":{"generator":"Godot Engine v4.0.dev.custom_build@b87b763d70760bac23dfeb02b4af7cbae3f3afce","version":"2.0"},"bufferViews":[{"buffer":0,"byteLength":8053128,"byteOffset":0},{"buffer":0,"byteLength":8053128,"byteOffset":8053128},{"buffer":0,"byteLength":10737504,"byteOffset":16106256},{"buffer":0,"byteLength":2684376,"byteOffset":26843760}],"buffers":[{"byteLength":29528136,"uri":"Level20.bin"}],"extensionsRequired":["KHR_texture_transform"],"extensionsUsed":["KHR_lights_punctual","KHR_texture_transform"],"materials":[{"doubleSided":true,"name":"concrete2","pbrMetallicRoughness":{"baseColorFactor":[1,0.181164175271988,0.00242821965366602,1],"metallicFactor":0,"roughnessFactor":1}}],"meshes":[{"extras":{"targetNames":[]},"primitives":[{"attributes":{"COLOR_0":2,"NORMAL":1,"POSITION":0},"indices":3,"material":0,"mode":4}]}],"nodes":[{"extensions":{},"mesh":0,"name":"Level"}],"scene":0,"scenes":[{"nodes":[0]}]}