{"accessors":[{"bufferView":0,"byteOffset":0,"componentType":5126,"count":483648,"max":[18.060818,15.596169,12.182943],"min":[-17.60873,0,-16.266888],"normalized":false,"type":"VEC3"},{"bufferView":1,"byteOffset":0,"componentType":5126,"count":483648,"max":[0.999999,0.999999,0.999999],"min":[-0.999999,-0.999999,-0.999999],"normalized":false,"type":"VEC3"},{"bufferView":2,"byteOffset":0,"componentType":5126,"count":483648,"max":[0.219608,0.101961,0.031373,1],"min":[0.011765,0.003922,0,1],"normalized":false,"type":"VEC4"},{"bufferView":3,"byteOffset":0,"componentType":5125,"count":483648,"max":[483647],"min":[0],"normalized":false,"type":"SCALAR"}],"asset":{"generator":"Godot Engine v4.0.dev.custom_build@b87b763d70760bac23dfeb02b4af7cbae3f3afce","version":"2.0"},"bufferViews":[{"buffer":0,"byteLength":5803776,"byteOffset":0},{"buffer":0,"byteLength":5803776,"byteOffset":5803776},{"buffer":0,"byteLength":7738368,"byteOffset":11607552},{"buffer":0,"byteLength":1934592,"byteOffset":19345920}],"buffers":[{"byteLength":21280512,"uri":"Level0.bin"}],"extensionsRequired":["KHR_texture_transform"],"extensionsUsed":["KHR_lights_punctual","KHR_texture_transform"],"materials":[{"doubleSided":true,"name":"concrete2","pbrMetallicRoughness":{"baseColorFactor":[1,0.181164175271988,0.00242821965366602,1],"metallicFactor":0,"roughnessFactor":1}}],"meshes":[{"extras":{"targetNames":[]},"primitives":[{"attributes":{"COLOR_0":2,"NORMAL":1,"POSITION":0},"indices":3,"material":0,"mode":4}]}],"nodes":[{"extensions":{},"mesh":0,"name":"Level"}],"scene":0,"scenes":[{"nodes":[0]}]}