{"accessors":[{"bufferView":0,"byteOffset":0,"componentType":5126,"count":2210,"max":[0.998867,1,0.998867],"min":[-0.998867,-1,-0.998867],"normalized":false,"type":"VEC3"},{"bufferView":1,"byteOffset":0,"componentType":5126,"count":2210,"max":[1,-0.002933,1,1],"min":[-1,-0.002933,-1,1],"normalized":false,"type":"VEC4"},{"bufferView":2,"byteOffset":0,"componentType":5126,"count":2210,"max":[0.998938,0.999991,0.998938],"min":[-0.999033,-0.999991,-0.999033],"normalized":false,"type":"VEC3"},{"bufferView":3,"byteOffset":0,"componentType":5126,"count":2210,"max":[1,1],"min":[0,0],"normalized":false,"type":"VEC2"},{"bufferView":4,"byteOffset":0,"componentType":5125,"count":12672,"max":[2209],"min":[0],"normalized":false,"type":"SCALAR"}],"asset":{"generator":"Godot Engine v4.0.dev.custom_build@b87b763d70760bac23dfeb02b4af7cbae3f3afce","version":"2.0"},"bufferViews":[{"buffer":0,"byteLength":26520,"byteOffset":0},{"buffer":0,"byteLength":35360,"byteOffset":26520},{"buffer":0,"byteLength":26520,"byteOffset":61880},{"buffer":0,"byteLength":17680,"byteOffset":88400},{"buffer":0,"byteLength":50688,"byteOffset":106080}],"buffers":[{"byteLength":156768,"uri":"player_mesh0.bin"}],"extensionsRequired":["KHR_texture_transform"],"extensionsUsed":["KHR_lights_punctual","KHR_texture_transform"],"images":[{"uri":"textures/material_1_albedo.png"}],"materials":[{"name":"material_1","pbrMetallicRoughness":{"baseColorFactor":[1,1,1,1],"baseColorTexture":{"extensions":{"KHR_texture_transform":{"offset":[0,0],"scale":[1,1]}},"index":0},"metallicFactor":0,"roughnessFactor":1}}],"meshes":[{"extras":{"targetNames":[]},"primitives":[{"attributes":{"NORMAL":2,"POSITION":0,"TANGENT":1,"TEXCOORD_0":3},"indices":4,"material":0,"mode":4}]}],"nodes":[{"extensions":{},"mesh":0,"name":"MeshInstance","scale":[0.200000002980232,0.200000002980232,0.200000002980232]}],"scene":0,"scenes":[{"nodes":[0]}],"textures":[{"source":0}]}