{"accessors":[{"bufferView":0,"byteOffset":0,"componentType":5126,"count":30912,"max":[0.162357,0.644835,0.166328],"min":[-0.164233,-0.640569,-0.163492],"normalized":false,"type":"VEC3"},{"bufferView":1,"byteOffset":0,"componentType":5126,"count":30912,"max":[0.999999,0.999999,0.999999],"min":[-0.999999,-0.999999,-0.999999],"normalized":false,"type":"VEC3"},{"bufferView":2,"byteOffset":0,"componentType":5126,"count":30912,"max":[0.254902,0.211765,0.227451,1],"min":[0,0,0,1],"normalized":false,"type":"VEC4"},{"bufferView":3,"byteOffset":0,"componentType":5125,"count":30912,"max":[30911],"min":[0],"normalized":false,"type":"SCALAR"},{"bufferView":4,"byteOffset":0,"componentType":5126,"count":30912,"max":[0.162357,0.644835,0.166328],"min":[-0.164233,-0.640569,-0.163492],"normalized":false,"type":"VEC3"},{"bufferView":5,"byteOffset":0,"componentType":5126,"count":30912,"max":[0.999999,0.999999,0.999999],"min":[-0.999999,-0.999999,-0.999999],"normalized":false,"type":"VEC3"},{"bufferView":6,"byteOffset":0,"componentType":5126,"count":30912,"max":[0.254902,0.211765,0.227451,1],"min":[0,0,0,1],"normalized":false,"type":"VEC4"},{"bufferView":7,"byteOffset":0,"componentType":5125,"count":30912,"max":[30911],"min":[0],"normalized":false,"type":"SCALAR"},{"bufferView":8,"byteOffset":0,"componentType":5126,"count":30912,"max":[0.162357,0.644835,0.166328],"min":[-0.164233,-0.640569,-0.163492],"normalized":false,"type":"VEC3"},{"bufferView":9,"byteOffset":0,"componentType":5126,"count":30912,"max":[0.999999,0.999999,0.999999],"min":[-0.999999,-0.999999,-0.999999],"normalized":false,"type":"VEC3"},{"bufferView":10,"byteOffset":0,"componentType":5126,"count":30912,"max":[0.254902,0.211765,0.227451,1],"min":[0,0,0,1],"normalized":false,"type":"VEC4"},{"bufferView":11,"byteOffset":0,"componentType":5125,"count":30912,"max":[30911],"min":[0],"normalized":false,"type":"SCALAR"},{"bufferView":12,"byteOffset":0,"componentType":5126,"count":30912,"max":[0.162357,0.644835,0.166328],"min":[-0.164233,-0.640569,-0.163492],"normalized":false,"type":"VEC3"},{"bufferView":13,"byteOffset":0,"componentType":5126,"count":30912,"max":[0.999999,0.999999,0.999999],"min":[-0.999999,-0.999999,-0.999999],"normalized":false,"type":"VEC3"},{"bufferView":14,"byteOffset":0,"componentType":5126,"count":30912,"max":[0.254902,0.211765,0.227451,1],"min":[0,0,0,1],"normalized":false,"type":"VEC4"},{"bufferView":15,"byteOffset":0,"componentType":5125,"count":30912,"max":[30911],"min":[0],"normalized":false,"type":"SCALAR"},{"bufferView":16,"byteOffset":0,"componentType":5126,"count":30912,"max":[0.162357,0.644835,0.166328],"min":[-0.164233,-0.640569,-0.163492],"normalized":false,"type":"VEC3"},{"bufferView":17,"byteOffset":0,"componentType":5126,"count":30912,"max":[0.999999,0.999999,0.999999],"min":[-0.999999,-0.999999,-0.999999],"normalized":false,"type":"VEC3"},{"bufferView":18,"byteOffset":0,"componentType":5126,"count":30912,"max":[0.254902,0.211765,0.227451,1],"min":[0,0,0,1],"normalized":false,"type":"VEC4"},{"bufferView":19,"byteOffset":0,"componentType":5125,"count":30912,"max":[30911],"min":[0],"normalized":false,"type":"SCALAR"},{"bufferView":20,"byteOffset":0,"componentType":5126,"count":30912,"max":[0.162357,0.644835,0.166328],"min":[-0.164233,-0.640569,-0.163492],"normalized":false,"type":"VEC3"},{"bufferView":21,"byteOffset":0,"componentType":5126,"count":30912,"max":[0.999999,0.999999,0.999999],"min":[-0.999999,-0.999999,-0.999999],"normalized":false,"type":"VEC3"},{"bufferView":22,"byteOffset":0,"componentType":5126,"count":30912,"max":[0.254902,0.211765,0.227451,1],"min":[0,0,0,1],"normalized":false,"type":"VEC4"},{"bufferView":23,"byteOffset":0,"componentType":5125,"count":30912,"max":[30911],"min":[0],"normalized":false,"type":"SCALAR"},{"bufferView":24,"byteOffset":0,"componentType":5126,"count":30912,"max":[0.162357,0.644835,0.166328],"min":[-0.164233,-0.640569,-0.163492],"normalized":false,"type":"VEC3"},{"bufferView":25,"byteOffset":0,"componentType":5126,"count":30912,"max":[0.999999,0.999999,0.999999],"min":[-0.999999,-0.999999,-0.999999],"normalized":false,"type":"VEC3"},{"bufferView":26,"byteOffset":0,"componentType":5126,"count":30912,"max":[0.254902,0.211765,0.227451,1],"min":[0,0,0,1],"normalized":false,"type":"VEC4"},{"bufferView":27,"byteOffset":0,"componentType":5125,"count":30912,"max":[30911],"min":[0],"normalized":false,"type":"SCALAR"},{"bufferView":28,"byteOffset":0,"componentType":5126,"count":30912,"max":[0.162357,0.644835,0.166328],"min":[-0.164233,-0.640569,-0.163492],"normalized":false,"type":"VEC3"},{"bufferView":29,"byteOffset":0,"componentType":5126,"count":30912,"max":[0.999999,0.999999,0.999999],"min":[-0.999999,-0.999999,-0.999999],"normalized":false,"type":"VEC3"},{"bufferView":30,"byteOffset":0,"componentType":5126,"count":30912,"max":[0.254902,0.211765,0.227451,1],"min":[0,0,0,1],"normalized":false,"type":"VEC4"},{"bufferView":31,"byteOffset":0,"componentType":5125,"count":30912,"max":[30911],"min":[0],"normalized":false,"type":"SCALAR"},{"bufferView":32,"byteOffset":0,"componentType":5126,"count":30912,"max":[0.162357,0.644835,0.166328],"min":[-0.164233,-0.640569,-0.163492],"normalized":false,"type":"VEC3"},{"bufferView":33,"byteOffset":0,"componentType":5126,"count":30912,"max":[0.999999,0.999999,0.999999],"min":[-0.999999,-0.999999,-0.999999],"normalized":false,"type":"VEC3"},{"bufferView":34,"byteOffset":0,"componentType":5126,"count":30912,"max":[0.254902,0.211765,0.227451,1],"min":[0,0,0,1],"normalized":false,"type":"VEC4"},{"bufferView":35,"byteOffset":0,"componentType":5125,"count":30912,"max":[30911],"min":[0],"normalized":false,"type":"SCALAR"},{"bufferView":36,"byteOffset":0,"componentType":5126,"count":30912,"max":[0.162357,0.644835,0.166328],"min":[-0.164233,-0.640569,-0.163492],"normalized":false,"type":"VEC3"},{"bufferView":37,"byteOffset":0,"componentType":5126,"count":30912,"max":[0.999999,0.999999,0.999999],"min":[-0.999999,-0.999999,-0.999999],"normalized":false,"type":"VEC3"},{"bufferView":38,"byteOffset":0,"componentType":5126,"count":30912,"max":[0.254902,0.211765,0.227451,1],"min":[0,0,0,1],"normalized":false,"type":"VEC4"},{"bufferView":39,"byteOffset":0,"componentType":5125,"count":30912,"max":[30911],"min":[0],"normalized":false,"type":"SCALAR"},{"bufferView":40,"byteOffset":0,"componentType":5126,"count":30912,"max":[0.162357,0.644835,0.166328],"min":[-0.164233,-0.640569,-0.163492],"normalized":false,"type":"VEC3"},{"bufferView":41,"byteOffset":0,"componentType":5126,"count":30912,"max":[0.999999,0.999999,0.999999],"min":[-0.999999,-0.999999,-0.999999],"normalized":false,"type":"VEC3"},{"bufferView":42,"byteOffset":0,"componentType":5126,"count":30912,"max":[0.254902,0.211765,0.227451,1],"min":[0,0,0,1],"normalized":false,"type":"VEC4"},{"bufferView":43,"byteOffset":0,"componentType":5125,"count":30912,"max":[30911],"min":[0],"normalized":false,"type":"SCALAR"},{"bufferView":44,"byteOffset":0,"componentType":5126,"count":30912,"max":[0.162357,0.644835,0.166328],"min":[-0.164233,-0.640569,-0.163492],"normalized":false,"type":"VEC3"},{"bufferView":45,"byteOffset":0,"componentType":5126,"count":30912,"max":[0.999999,0.999999,0.999999],"min":[-0.999999,-0.999999,-0.999999],"normalized":false,"type":"VEC3"},{"bufferView":46,"byteOffset":0,"componentType":5126,"count":30912,"max":[0.254902,0.211765,0.227451,1],"min":[0,0,0,1],"normalized":false,"type":"VEC4"},{"bufferView":47,"byteOffset":0,"componentType":5125,"count":30912,"max":[30911],"min":[0],"normalized":false,"type":"SCALAR"},{"bufferView":48,"byteOffset":0,"componentType":5126,"count":30912,"max":[0.162357,0.644835,0.166328],"min":[-0.164233,-0.640569,-0.163492],"normalized":false,"type":"VEC3"},{"bufferView":49,"byteOffset":0,"componentType":5126,"count":30912,"max":[0.999999,0.999999,0.999999],"min":[-0.999999,-0.999999,-0.999999],"normalized":false,"type":"VEC3"},{"bufferView":50,"byteOffset":0,"componentType":5126,"count":30912,"max":[0.254902,0.211765,0.227451,1],"min":[0,0,0,1],"normalized":false,"type":"VEC4"},{"bufferView":51,"byteOffset":0,"componentType":5125,"count":30912,"max":[30911],"min":[0],"normalized":false,"type":"SCALAR"},{"bufferView":52,"byteOffset":0,"componentType":5126,"count":30912,"max":[0.162357,0.644835,0.166328],"min":[-0.164233,-0.640569,-0.163492],"normalized":false,"type":"VEC3"},{"bufferView":53,"byteOffset":0,"componentType":5126,"count":30912,"max":[0.999999,0.999999,0.999999],"min":[-0.999999,-0.999999,-0.999999],"normalized":false,"type":"VEC3"},{"bufferView":54,"byteOffset":0,"componentType":5126,"count":30912,"max":[0.254902,0.211765,0.227451,1],"min":[0,0,0,1],"normalized":false,"type":"VEC4"},{"bufferView":55,"byteOffset":0,"componentType":5125,"count":30912,"max":[30911],"min":[0],"normalized":false,"type":"SCALAR"},{"bufferView":56,"byteOffset":0,"componentType":5126,"count":30912,"max":[0.162357,0.644835,0.166328],"min":[-0.164233,-0.640569,-0.163492],"normalized":false,"type":"VEC3"},{"bufferView":57,"byteOffset":0,"componentType":5126,"count":30912,"max":[0.999999,0.999999,0.999999],"min":[-0.999999,-0.999999,-0.999999],"normalized":false,"type":"VEC3"},{"bufferView":58,"byteOffset":0,"componentType":5126,"count":30912,"max":[0.254902,0.211765,0.227451,1],"min":[0,0,0,1],"normalized":false,"type":"VEC4"},{"bufferView":59,"byteOffset":0,"componentType":5125,"count":30912,"max":[30911],"min":[0],"normalized":false,"type":"SCALAR"},{"bufferView":60,"byteOffset":0,"componentType":5126,"count":30912,"max":[0.162357,0.644835,0.166328],"min":[-0.164233,-0.640569,-0.163492],"normalized":false,"type":"VEC3"},{"bufferView":61,"byteOffset":0,"componentType":5126,"count":30912,"max":[0.999999,0.999999,0.999999],"min":[-0.999999,-0.999999,-0.999999],"normalized":false,"type":"VEC3"},{"bufferView":62,"byteOffset":0,"componentType":5126,"count":30912,"max":[0.254902,0.211765,0.227451,1],"min":[0,0,0,1],"normalized":false,"type":"VEC4"},{"bufferView":63,"byteOffset":0,"componentType":5125,"count":30912,"max":[30911],"min":[0],"normalized":false,"type":"SCALAR"}],"asset":{"generator":"Godot Engine v4.0.dev.custom_build@b87b763d70760bac23dfeb02b4af7cbae3f3afce","version":"2.0"},"bufferViews":[{"buffer":0,"byteLength":370944,"byteOffset":0},{"buffer":0,"byteLength":370944,"byteOffset":370944},{"buffer":0,"byteLength":494592,"byteOffset":741888},{"buffer":0,"byteLength":123648,"byteOffset":1236480},{"buffer":0,"byteLength":370944,"byteOffset":1360128},{"buffer":0,"byteLength":370944,"byteOffset":1731072},{"buffer":0,"byteLength":494592,"byteOffset":2102016},{"buffer":0,"byteLength":123648,"byteOffset":2596608},{"buffer":0,"byteLength":370944,"byteOffset":2720256},{"buffer":0,"byteLength":370944,"byteOffset":3091200},{"buffer":0,"byteLength":494592,"byteOffset":3462144},{"buffer":0,"byteLength":123648,"byteOffset":3956736},{"buffer":0,"byteLength":370944,"byteOffset":4080384},{"buffer":0,"byteLength":370944,"byteOffset":4451328},{"buffer":0,"byteLength":494592,"byteOffset":4822272},{"buffer":0,"byteLength":123648,"byteOffset":5316864},{"buffer":0,"byteLength":370944,"byteOffset":5440512},{"buffer":0,"byteLength":370944,"byteOffset":5811456},{"buffer":0,"byteLength":494592,"byteOffset":6182400},{"buffer":0,"byteLength":123648,"byteOffset":6676992},{"buffer":0,"byteLength":370944,"byteOffset":6800640},{"buffer":0,"byteLength":370944,"byteOffset":7171584},{"buffer":0,"byteLength":494592,"byteOffset":7542528},{"buffer":0,"byteLength":123648,"byteOffset":8037120},{"buffer":0,"byteLength":370944,"byteOffset":8160768},{"buffer":0,"byteLength":370944,"byteOffset":8531712},{"buffer":0,"byteLength":494592,"byteOffset":8902656},{"buffer":0,"byteLength":123648,"byteOffset":9397248},{"buffer":0,"byteLength":370944,"byteOffset":9520896},{"buffer":0,"byteLength":370944,"byteOffset":9891840},{"buffer":0,"byteLength":494592,"byteOffset":10262784},{"buffer":0,"byteLength":123648,"byteOffset":10757376},{"buffer":0,"byteLength":370944,"byteOffset":10881024},{"buffer":0,"byteLength":370944,"byteOffset":11251968},{"buffer":0,"byteLength":494592,"byteOffset":11622912},{"buffer":0,"byteLength":123648,"byteOffset":12117504},{"buffer":0,"byteLength":370944,"byteOffset":12241152},{"buffer":0,"byteLength":370944,"byteOffset":12612096},{"buffer":0,"byteLength":494592,"byteOffset":12983040},{"buffer":0,"byteLength":123648,"byteOffset":13477632},{"buffer":0,"byteLength":370944,"byteOffset":13601280},{"buffer":0,"byteLength":370944,"byteOffset":13972224},{"buffer":0,"byteLength":494592,"byteOffset":14343168},{"buffer":0,"byteLength":123648,"byteOffset":14837760},{"buffer":0,"byteLength":370944,"byteOffset":14961408},{"buffer":0,"byteLength":370944,"byteOffset":15332352},{"buffer":0,"byteLength":494592,"byteOffset":15703296},{"buffer":0,"byteLength":123648,"byteOffset":16197888},{"buffer":0,"byteLength":370944,"byteOffset":16321536},{"buffer":0,"byteLength":370944,"byteOffset":16692480},{"buffer":0,"byteLength":494592,"byteOffset":17063424},{"buffer":0,"byteLength":123648,"byteOffset":17558016},{"buffer":0,"byteLength":370944,"byteOffset":17681664},{"buffer":0,"byteLength":370944,"byteOffset":18052608},{"buffer":0,"byteLength":494592,"byteOffset":18423552},{"buffer":0,"byteLength":123648,"byteOffset":18918144},{"buffer":0,"byteLength":370944,"byteOffset":19041792},{"buffer":0,"byteLength":370944,"byteOffset":19412736},{"buffer":0,"byteLength":494592,"byteOffset":19783680},{"buffer":0,"byteLength":123648,"byteOffset":20278272},{"buffer":0,"byteLength":370944,"byteOffset":20401920},{"buffer":0,"byteLength":370944,"byteOffset":20772864},{"buffer":0,"byteLength":494592,"byteOffset":21143808},{"buffer":0,"byteLength":123648,"byteOffset":21638400}],"buffers":[{"byteLength":21762048,"uri":"Saulen0.bin"}],"extensionsRequired":["KHR_texture_transform"],"extensionsUsed":["KHR_lights_punctual","KHR_texture_transform"],"materials":[{"doubleSided":true,"name":"concrete7","pbrMetallicRoughness":{"baseColorFactor":[0.533276796340942,0.22322803735733,0.0886562690138817,1],"metallicFactor":0,"roughnessFactor":1}}],"meshes":[{"extras":{"targetNames":[]},"primitives":[{"attributes":{"COLOR_0":2,"NORMAL":1,"POSITION":0},"indices":3,"material":0,"mode":4}]},{"extras":{"targetNames":[]},"primitives":[{"attributes":{"COLOR_0":6,"NORMAL":5,"POSITION":4},"indices":7,"material":0,"mode":4}]},{"extras":{"targetNames":[]},"primitives":[{"attributes":{"COLOR_0":10,"NORMAL":9,"POSITION":8},"indices":11,"material":0,"mode":4}]},{"extras":{"targetNames":[]},"primitives":[{"attributes":{"COLOR_0":14,"NORMAL":13,"POSITION":12},"indices":15,"material":0,"mode":4}]},{"extras":{"targetNames":[]},"primitives":[{"attributes":{"COLOR_0":18,"NORMAL":17,"POSITION":16},"indices":19,"material":0,"mode":4}]},{"extras":{"targetNames":[]},"primitives":[{"attributes":{"COLOR_0":22,"NORMAL":21,"POSITION":20},"indices":23,"material":0,"mode":4}]},{"extras":{"targetNames":[]},"primitives":[{"attributes":{"COLOR_0":26,"NORMAL":25,"POSITION":24},"indices":27,"material":0,"mode":4}]},{"extras":{"targetNames":[]},"primitives":[{"attributes":{"COLOR_0":30,"NORMAL":29,"POSITION":28},"indices":31,"material":0,"mode":4}]},{"extras":{"targetNames":[]},"primitives":[{"attributes":{"COLOR_0":34,"NORMAL":33,"POSITION":32},"indices":35,"material":0,"mode":4}]},{"extras":{"targetNames":[]},"primitives":[{"attributes":{"COLOR_0":38,"NORMAL":37,"POSITION":36},"indices":39,"material":0,"mode":4}]},{"extras":{"targetNames":[]},"primitives":[{"attributes":{"COLOR_0":42,"NORMAL":41,"POSITION":40},"indices":43,"material":0,"mode":4}]},{"extras":{"targetNames":[]},"primitives":[{"attributes":{"COLOR_0":46,"NORMAL":45,"POSITION":44},"indices":47,"material":0,"mode":4}]},{"extras":{"targetNames":[]},"primitives":[{"attributes":{"COLOR_0":50,"NORMAL":49,"POSITION":48},"indices":51,"material":0,"mode":4}]},{"extras":{"targetNames":[]},"primitives":[{"attributes":{"COLOR_0":54,"NORMAL":53,"POSITION":52},"indices":55,"material":0,"mode":4}]},{"extras":{"targetNames":[]},"primitives":[{"attributes":{"COLOR_0":58,"NORMAL":57,"POSITION":56},"indices":59,"material":0,"mode":4}]},{"extras":{"targetNames":[]},"primitives":[{"attributes":{"COLOR_0":62,"NORMAL":61,"POSITION":60},"indices":63,"material":0,"mode":4}]}],"nodes":[{"children":[1,2,3,4,5,6,7,8,9,10,11,12,13,14,15,16],"extensions":{},"name":"Saulen"},{"extensions":{},"mesh":0,"name":"Saule_012","rotation":[0,0.287870764732361,0,0.957669317722321],"scale":[2.59167146682739,2.39630007743835,2.72517776489258],"translation":[-18.9807,2.60115003585815,-17.746799]},{"extensions":{},"mesh":1,"name":"Saule_122","rotation":[0,0.0849568769335747,0,0.996384620666504],"scale":[3.04899334907532,2.8191499710083,3.20606088638306],"translation":[-24.2915,3.08991003036499,-37.7257]},{"extensions":{},"mesh":2,"name":"Saule_132","rotation":[0,0.0849568769335747,0,0.996384620666504],"scale":[3.04899334907532,2.8191499710083,3.20606088638306],"translation":[-21.383699,3.08991003036499,-37.9338]},{"extensions":{},"mesh":3,"name":"Saule_152","rotation":[0,0.0849568769335747,0,0.996384620666504],"scale":[3.04899334907532,2.8191499710083,3.20606088638306],"translation":[-16.990601,3.08991003036499,-52.331799]},{"extensions":{},"mesh":4,"name":"Saule_162","rotation":[0,0.0849568769335747,0,0.996384620666504],"scale":[3.04899334907532,2.8191499710083,3.20606088638306],"translation":[-17.3382,3.08991003036499,-55.744499]},{"extensions":{},"mesh":5,"name":"Saule_142","rotation":[0.038012009114027,0.038012009114027,0.706084370613098,0.706084311008453],"scale":[2.80019998550415,3.1147723197937,3.20605993270874],"translation":[-22.82,5.3334698677063,-37.8913]},{"extensions":{},"mesh":6,"name":"Saule_112","rotation":[0,0.287870556116104,0,0.957669317722321],"scale":[5.70374202728271,5.27376985549927,5.99756336212158],"translation":[-30.899099,4.6496000289917,-13.5964]},{"extensions":{},"mesh":7,"name":"Saule_092","rotation":[0,0.496822893619537,0,0.867851972579956],"scale":[4.43855237960815,4.10396003723145,4.66719770431519],"translation":[-2.14313,4.04707002639771,-19.6187]},{"extensions":{},"mesh":8,"name":"Saule_102","rotation":[-0.201655,0.399381667375565,-0.142138,0.882964491844177],"scale":[4.43855571746826,4.10396099090576,4.66719913482666],"translation":[-17.333599,2.78744006156921,-24.2684]},{"extensions":{},"mesh":9,"name":"Saule_022","rotation":[0,0.887654542922974,0,0.460509926080704],"scale":[2.59166598320007,2.39630007743835,2.72517943382263],"translation":[-63.378399,3.83418989181519,-2.51141]},{"extensions":{},"mesh":10,"name":"Saule_032","rotation":[0,0.887654542922974,0,0.460509926080704],"scale":[2.59166598320007,2.39630007743835,2.72517943382263],"translation":[-63.367401,6.89309978485107,-2.51918]},{"extensions":{},"mesh":11,"name":"Saule_052","rotation":[0,0.823958456516266,0,0.566650211811066],"scale":[2.59166789054871,2.39630007743835,2.72517704963684],"translation":[-59.050598,3.83418989181519,2.57540988922119]},{"extensions":{},"mesh":12,"name":"Saule_042","rotation":[0,0.823958456516266,0,0.566650211811066],"scale":[2.59166789054871,2.39630007743835,2.72517704963684],"translation":[-59.039501,6.89309978485107,2.56763005256653]},{"extensions":{},"mesh":13,"name":"Saule_072","rotation":[0,0.823958456516266,0,0.566650211811066],"scale":[2.59166789054871,2.39630007743835,2.72517704963684],"translation":[-48.622299,3.77445006370544,4.0528302192688]},{"extensions":{},"mesh":14,"name":"Saule_062","rotation":[0,0.723100185394287,0,0.690743148326874],"scale":[2.5916633605957,2.39630007743835,2.72517323493958],"translation":[-42.7551,3.80894994735718,8.76002979278564]},{"extensions":{},"mesh":15,"name":"Saule_082","rotation":[0,0.78926146030426,0,0.61405736207962],"scale":[2.59166479110718,2.39630007743835,2.725172996521],"translation":[-42.9007,3.65035009384155,6.01875019073486]}],"scene":0,"scenes":[{"nodes":[0]}]}