{"accessors":[{"bufferView":0,"byteOffset":0,"componentType":5126,"count":4176,"max":[0.34744,1.706741,0.3639],"min":[-0.347685,0,-0.330683],"normalized":false,"type":"VEC3"},{"bufferView":1,"byteOffset":0,"componentType":5126,"count":4176,"max":[0.998045,1,0.998045,1],"min":[-1,-1,-1,-1],"normalized":false,"type":"VEC4"},{"bufferView":2,"byteOffset":0,"componentType":5126,"count":4176,"max":[0.999999,0.999999,0.999999],"min":[-0.999999,-0.999999,-0.999999],"normalized":false,"type":"VEC3"},{"bufferView":3,"byteOffset":0,"componentType":5126,"count":4176,"max":[1,1.011719],"min":[0,0],"normalized":false,"type":"VEC2"},{"bufferView":4,"byteOffset":0,"componentType":5126,"count":4176,"max":[0.286275,0.156863,0.039216,1],"min":[0.003922,0.003922,0,1],"normalized":false,"type":"VEC4"},{"bufferView":5,"byteOffset":0,"componentType":5125,"count":4176,"max":[4175],"min":[0],"normalized":false,"type":"SCALAR"},{"bufferView":6,"byteOffset":0,"componentType":5126,"count":90,"max":[0.04924,0.05,0.04924],"min":[-0.04924,-0.05,-0.04924],"normalized":false,"type":"VEC3"},{"bufferView":7,"byteOffset":0,"componentType":5126,"count":90,"max":[0.998045,-0.000978,0.998045,1],"min":[-1,-0.012708,-1,1],"normalized":false,"type":"VEC4"},{"bufferView":8,"byteOffset":0,"componentType":5126,"count":90,"max":[0.984863,0.999999,0.988405],"min":[-0.984922,-0.999999,-0.980898],"normalized":false,"type":"VEC3"},{"bufferView":9,"byteOffset":0,"componentType":5126,"count":90,"max":[1,1],"min":[0,0],"normalized":false,"type":"VEC2"},{"bufferView":10,"byteOffset":0,"componentType":5125,"count":432,"max":[89],"min":[0],"normalized":false,"type":"SCALAR"}],"asset":{"generator":"Godot Engine v4.0.dev.custom_build@b87b763d70760bac23dfeb02b4af7cbae3f3afce","version":"2.0"},"bufferViews":[{"buffer":0,"byteLength":50112,"byteOffset":0},{"buffer":0,"byteLength":66816,"byteOffset":50112},{"buffer":0,"byteLength":50112,"byteOffset":116928},{"buffer":0,"byteLength":33408,"byteOffset":167040},{"buffer":0,"byteLength":66816,"byteOffset":200448},{"buffer":0,"byteLength":16704,"byteOffset":267264},{"buffer":0,"byteLength":1080,"byteOffset":283968},{"buffer":0,"byteLength":1440,"byteOffset":285048},{"buffer":0,"byteLength":1080,"byteOffset":286488},{"buffer":0,"byteLength":720,"byteOffset":287568},{"buffer":0,"byteLength":1728,"byteOffset":288288}],"buffers":[{"byteLength":290016,"uri":"Statue_040.bin"}],"extensions":{"KHR_lights_punctual":{"lights":[{"color":[0.871120989322662,0.968348026275635,1],"intensity":4,"range":4,"type":"point"}]}},"extensionsRequired":["KHR_texture_transform"],"extensionsUsed":["KHR_lights_punctual","KHR_texture_transform"],"materials":[{"doubleSided":true,"name":"concrete5","pbrMetallicRoughness":{"baseColorFactor":[1,1,1,1],"metallicFactor":0,"roughnessFactor":1}},{"emissiveFactor":[0,0,0],"name":"material_1","pbrMetallicRoughness":{"baseColorFactor":[0.0159960221499205,0.467784523963928,1,1],"metallicFactor":0,"roughnessFactor":1}}],"meshes":[{"extras":{"targetNames":[]},"primitives":[{"attributes":{"COLOR_0":4,"NORMAL":2,"POSITION":0,"TANGENT":1,"TEXCOORD_0":3},"indices":5,"material":0,"mode":4}]},{"extras":{"targetNames":[]},"primitives":[{"attributes":{"NORMAL":8,"POSITION":6,"TANGENT":7,"TEXCOORD_0":9},"indices":10,"material":1,"mode":4}]}],"nodes":[{"children":[1],"extensions":{},"mesh":0,"name":"Statue_04","rotation":[0,-0.518281,0,0.855210542678833],"translation":[-25.433001,1.4839700460434,-45.8032]},{"children":[2],"extensions":{},"mesh":1,"name":"MeshInstance22","rotation":[0,0.998213291168213,0,-0.059751],"translation":[0.00586300017312169,1.81848001480103,0.278935998678207]},{"extensions":{"KHR_lights_punctual":{"light":0}},"name":"OmniLight22","translation":[0.00398299982771277,-0.011869,0.0176320001482964]}],"scene":0,"scenes":[{"nodes":[0]}]}